<svg xmlns="http://www.w3.org/2000/svg" viewBox="0 0 80 130"><defs><style>.cls-1{fill:#232f3e;}.cls-2{fill:#fff;}</style></defs><title>product-icon_Amazon_FSx</title><g id="CARDS"><rect class="cls-1" x="1" y="1" width="78" height="78"/><path class="cls-2" d="M0,0V80H0v50H80V80h0V0ZM1,1H79V79H1Z"/><path class="cls-1" d="M15.79,92.35l-.43-1.82h-2l-.42,1.82H11.16l2.32-7.63h1.86l2.31,7.63Zm-2.18-2.92H15.1l-.76-3.16Z"/><path class="cls-1" d="M24.5,92.35V88.64a1.32,1.32,0,0,0-.14-.69.49.49,0,0,0-.46-.22,1.59,1.59,0,0,0-.8.26.5.5,0,0,1,0,.12v4.24H21.46V88.64a1.33,1.33,0,0,0-.13-.69.51.51,0,0,0-.47-.22,1.55,1.55,0,0,0-.78.26v4.36H18.43V86.72h1.35l.13.51a3.31,3.31,0,0,1,1.81-.65,1.25,1.25,0,0,1,1.2.67,3.38,3.38,0,0,1,1.83-.67,1.3,1.3,0,0,1,1,.42,1.85,1.85,0,0,1,.36,1.22v4.13Z"/><path class="cls-1" d="M30.45,92.35l-.14-.51a1.56,1.56,0,0,1-.59.47,1.86,1.86,0,0,1-.79.18A1.57,1.57,0,0,1,27.75,92a1.65,1.65,0,0,1-.43-1.22,1.69,1.69,0,0,1,.53-1.31A2,2,0,0,1,29.28,89a4,4,0,0,1,.93.13v-.51a1.33,1.33,0,0,0-.16-.78.77.77,0,0,0-.61-.2,5.9,5.9,0,0,0-1.77.35V87a3,3,0,0,1,.91-.33,5.64,5.64,0,0,1,1.16-.12,2.19,2.19,0,0,1,1.52.44,1.82,1.82,0,0,1,.47,1.39v3.94Zm-1-.92a1.17,1.17,0,0,0,.79-.35V90a2.33,2.33,0,0,0-.63-.07.66.66,0,0,0-.53.2.81.81,0,0,0-.19.59.82.82,0,0,0,.15.52A.49.49,0,0,0,29.42,91.43Z"/><path class="cls-1" d="M32.72,92.35V91.28l2.49-3.4h-2.4V86.72H37v1.07l-2.5,3.4H37v1.16Z"/><path class="cls-1" d="M40.23,92.49a2.3,2.3,0,0,1-1.84-.77,4,4,0,0,1,0-4.37,2.6,2.6,0,0,1,3.69,0,4,4,0,0,1,0,4.37A2.31,2.31,0,0,1,40.23,92.49Zm0-1.15a.67.67,0,0,0,.65-.43,4.79,4.79,0,0,0,0-2.74.69.69,0,0,0-1.29,0,4.79,4.79,0,0,0,0,2.74A.66.66,0,0,0,40.23,91.34Z"/><path class="cls-1" d="M47,92.35v-3.7a1.36,1.36,0,0,0-.14-.7.55.55,0,0,0-.5-.22,1.56,1.56,0,0,0-.81.26v4.36H43.88V86.72h1.35l.14.51a3.32,3.32,0,0,1,1.84-.65,1.35,1.35,0,0,1,1.07.42,1.83,1.83,0,0,1,.36,1.22v4.13Z"/><path class="cls-1" d="M52.69,92.35V84.72H57V85.9H54.38V88h2.08v1.17H54.38v3.22Z"/><path class="cls-1" d="M59.39,89a3.6,3.6,0,0,1-1.28-1,2,2,0,0,1-.38-1.23,2.06,2.06,0,0,1,.33-1.17,2.2,2.2,0,0,1,.93-.77,3.14,3.14,0,0,1,1.34-.27,4.92,4.92,0,0,1,1.89.39v1.17a5.44,5.44,0,0,0-1.72-.33,1.29,1.29,0,0,0-.8.23.78.78,0,0,0-.29.64.86.86,0,0,0,.19.56,2.09,2.09,0,0,0,.72.48L61,88a4.73,4.73,0,0,1,1,.62,1.76,1.76,0,0,1,.54.69,2.13,2.13,0,0,1,.18.92,2,2,0,0,1-.74,1.65,3.12,3.12,0,0,1-2,.61,5.52,5.52,0,0,1-1.14-.12,4.06,4.06,0,0,1-.95-.32V90.92a7.45,7.45,0,0,0,1,.25,5.33,5.33,0,0,0,1,.11,1.31,1.31,0,0,0,.87-.25.94.94,0,0,0,.1-1.29,2.62,2.62,0,0,0-.71-.47Z"/><path class="cls-1" d="M66.63,92.35l-1-1.79-.85,1.79H63.15l1.72-2.83-1.7-2.8h1.77l.91,1.73.83-1.73H68.3l-1.69,2.8,1.79,2.83Z"/><path class="cls-1" d="M10.9,106.35v-4.53h-.78v-.92l.78-.15v-.66a2.17,2.17,0,0,1,.48-1.54,2,2,0,0,1,1.48-.5,2.9,2.9,0,0,1,1.09.21v1a3.1,3.1,0,0,0-.63-.07.86.86,0,0,0-.61.16.89.89,0,0,0-.16.62v.74h1.34v1.1H12.55v4.53Z"/><path class="cls-1" d="M16.85,106.49a2.29,2.29,0,0,1-1.84-.77,4,4,0,0,1,0-4.37,2.29,2.29,0,0,1,1.84-.77,2.27,2.27,0,0,1,1.84.77,4,4,0,0,1,0,4.37A2.27,2.27,0,0,1,16.85,106.49Zm0-1.15a.67.67,0,0,0,.65-.43,5,5,0,0,0,0-2.74.67.67,0,0,0-.65-.44.65.65,0,0,0-.64.44,4.79,4.79,0,0,0,0,2.74A.65.65,0,0,0,16.85,105.34Z"/><path class="cls-1" d="M20.5,106.35v-5.63h1.35l.18.73a2.5,2.5,0,0,1,.72-.59,1.52,1.52,0,0,1,.75-.19,2.56,2.56,0,0,1,.39,0V102a5,5,0,0,0-.64,0,2.47,2.47,0,0,0-1.1.26v4.11Z"/><path class="cls-1" d="M32.1,106.35l-.94-5.63-.89,5.63H28.4l-1.78-7.63h1.7l1.06,6.06L30.29,99h1.84l.94,5.65,1-6h1.66L34,106.35Z"/><path class="cls-1" d="M37.49,99.81a1,1,0,0,1-.71-.22.76.76,0,0,1-.27-.61.75.75,0,0,1,.27-.61,1.2,1.2,0,0,1,1.41,0,.77.77,0,0,1,.26.61.79.79,0,0,1-.26.61A1,1,0,0,1,37.49,99.81Zm-.83,6.54v-5.63h1.65v5.63Z"/><path class="cls-1" d="M42.87,106.35v-3.7a1.36,1.36,0,0,0-.14-.7.55.55,0,0,0-.5-.22,1.56,1.56,0,0,0-.81.26v4.36H39.76v-5.63h1.35l.14.51a3.32,3.32,0,0,1,1.84-.65,1.35,1.35,0,0,1,1.07.42,1.83,1.83,0,0,1,.36,1.22v4.13Z"/><path class="cls-1" d="M49.17,106.35l-.13-.49a2,2,0,0,1-.63.43,1.86,1.86,0,0,1-.72.15,1.75,1.75,0,0,1-1.51-.75,3.65,3.65,0,0,1-.54-2.13,3.73,3.73,0,0,1,.56-2.19,1.76,1.76,0,0,1,1.53-.79,2.08,2.08,0,0,1,.63.13A2.35,2.35,0,0,1,49,101V98.21h1.65v8.14Zm-.92-1a1.34,1.34,0,0,0,.72-.22V102a1.51,1.51,0,0,0-.8-.26.7.7,0,0,0-.67.44,3.39,3.39,0,0,0-.21,1.39,3.05,3.05,0,0,0,.23,1.36A.77.77,0,0,0,48.25,105.32Z"/><path class="cls-1" d="M54.27,106.49a2.27,2.27,0,0,1-1.84-.77,4,4,0,0,1,0-4.37,2.58,2.58,0,0,1,3.68,0,4,4,0,0,1,0,4.37A2.29,2.29,0,0,1,54.27,106.49Zm0-1.15a.65.65,0,0,0,.64-.43,4.79,4.79,0,0,0,0-2.74.65.65,0,0,0-.64-.44.67.67,0,0,0-.65.44,5,5,0,0,0,0,2.74A.67.67,0,0,0,54.27,105.34Z"/><path class="cls-1" d="M62,106.35l-.8-4-.77,4H58.83l-1.55-5.63H59l.71,4,.77-4h1.47l.82,4.23.65-4.23h1.67l-1.57,5.63Z"/><path class="cls-1" d="M67.86,104.77c0-.25-.17-.46-.52-.62l-.72-.35a1.68,1.68,0,0,1-1.13-1.59A1.42,1.42,0,0,1,66,101a2.26,2.26,0,0,1,1.47-.45,3.57,3.57,0,0,1,1.53.35v1a5.56,5.56,0,0,0-.7-.19,3,3,0,0,0-.6-.07c-.52,0-.77.18-.77.54s.21.45.64.66l.72.34a1.9,1.9,0,0,1,.77.62,1.69,1.69,0,0,1,.24.93,1.56,1.56,0,0,1-.55,1.27,2.31,2.31,0,0,1-1.49.46,3.79,3.79,0,0,1-1.81-.44v-1a5.45,5.45,0,0,0,1.61.35.86.86,0,0,0,.57-.17A.59.59,0,0,0,67.86,104.77Z"/><path class="cls-1" d="M15.4,120.35v-7.63h4.35v1.18H17.08V116h2.09v1.17H17.08v3.22Z"/><path class="cls-1" d="M21.53,113.81a1.06,1.06,0,0,1-.71-.22.76.76,0,0,1-.27-.61.75.75,0,0,1,.27-.61,1.2,1.2,0,0,1,1.41,0,.74.74,0,0,1,.26.61.75.75,0,0,1-.26.61A1,1,0,0,1,21.53,113.81Zm-.83,6.54v-5.63h1.65v5.63Z"/><path class="cls-1" d="M26.21,120.25a2.74,2.74,0,0,1-1,.16,1.43,1.43,0,0,1-1.08-.37,1.58,1.58,0,0,1-.35-1.12v-6.71h1.65v6.54a.66.66,0,0,0,.08.4.36.36,0,0,0,.32.12,2.26,2.26,0,0,0,.35,0Z"/><path class="cls-1" d="M28.31,117.92a1.77,1.77,0,0,0,.36,1.12,1.47,1.47,0,0,0,1.07.33,3.26,3.26,0,0,0,.68-.09,6.31,6.31,0,0,0,.8-.21v1a3,3,0,0,1-.83.31,4.77,4.77,0,0,1-1,.11c-1.72,0-2.58-1-2.58-2.95a3.37,3.37,0,0,1,.63-2.2,2.23,2.23,0,0,1,1.83-.76c1.36,0,2,.76,2,2.29a4.32,4.32,0,0,1-.12,1Zm.92-2.32c-.58,0-.88.46-.92,1.37h1.62v-.25a1.68,1.68,0,0,0-.17-.86A.59.59,0,0,0,29.23,115.6Z"/><path class="cls-1" d="M36.43,117a3.55,3.55,0,0,1-1.27-1,2,2,0,0,1-.39-1.23,2,2,0,0,1,.34-1.17,2.11,2.11,0,0,1,.92-.77,3.18,3.18,0,0,1,1.34-.27,4.85,4.85,0,0,1,1.89.39v1.17a5.44,5.44,0,0,0-1.72-.33,1.26,1.26,0,0,0-.79.23.75.75,0,0,0-.29.64.86.86,0,0,0,.18.56,2.32,2.32,0,0,0,.72.48L38,116a5.12,5.12,0,0,1,1,.62,2,2,0,0,1,.54.69,2.29,2.29,0,0,1,.17.92A2,2,0,0,1,39,119.9a3.09,3.09,0,0,1-2,.61,5.35,5.35,0,0,1-1.13-.12,3.76,3.76,0,0,1-1-.32v-1.15a7.29,7.29,0,0,0,1,.25,5.33,5.33,0,0,0,1,.11,1.32,1.32,0,0,0,.88-.25.86.86,0,0,0,.3-.71.84.84,0,0,0-.21-.58,2.47,2.47,0,0,0-.71-.47Z"/><path class="cls-1" d="M42.07,117.92a1.77,1.77,0,0,0,.36,1.12,1.45,1.45,0,0,0,1.06.33,3.11,3.11,0,0,0,.68-.09,6,6,0,0,0,.81-.21v1a3,3,0,0,1-.84.31,4.67,4.67,0,0,1-1,.11c-1.72,0-2.58-1-2.58-2.95a3.37,3.37,0,0,1,.63-2.2,2.23,2.23,0,0,1,1.83-.76c1.36,0,2,.76,2,2.29a4.32,4.32,0,0,1-.12,1ZM43,115.6c-.58,0-.89.46-.92,1.37h1.62v-.25a1.68,1.68,0,0,0-.17-.86A.59.59,0,0,0,43,115.6Z"/><path class="cls-1" d="M46.22,120.35v-5.63h1.35l.18.73a2.61,2.61,0,0,1,.71-.59,1.56,1.56,0,0,1,.76-.19l.38,0V116a4.85,4.85,0,0,0-.64,0,2.43,2.43,0,0,0-1.09.26v4.11Z"/><path class="cls-1" d="M52,120.35l-1.85-5.63h1.74l.9,4,.91-4h1.7l-1.84,5.63Z"/><path class="cls-1" d="M57.4,117.92a1.66,1.66,0,0,0,.36,1.12,1.43,1.43,0,0,0,1.06.33,3.26,3.26,0,0,0,.68-.09,5.9,5.9,0,0,0,.8-.21v1a2.88,2.88,0,0,1-.83.31,4.77,4.77,0,0,1-1,.11c-1.72,0-2.58-1-2.58-2.95a3.37,3.37,0,0,1,.63-2.2,2.24,2.24,0,0,1,1.83-.76c1.36,0,2,.76,2,2.29a4.32,4.32,0,0,1-.12,1Zm.91-2.32c-.58,0-.88.46-.91,1.37H59v-.25a1.68,1.68,0,0,0-.17-.86A.59.59,0,0,0,58.31,115.6Z"/><path class="cls-1" d="M61.54,120.35v-5.63h1.35l.18.73a2.5,2.5,0,0,1,.72-.59,1.49,1.49,0,0,1,.75-.19,2.56,2.56,0,0,1,.39,0V116a5,5,0,0,0-.64,0,2.47,2.47,0,0,0-1.1.26v4.11Z"/></g><g id="ICONS_-_EDIT" data-name="ICONS - EDIT"><path class="cls-2" d="M57.88,46l-.38-2c3.42-.68,5.09-2.86,5.09-6.67S60.28,30.92,55.72,30a1,1,0,0,1-.8-.92c-.22-3.85-2.44-5.21-4.28-5.21a4,4,0,0,0-3.18,1.63,1,1,0,0,1-1,.38,1,1,0,0,1-.79-.64,12.77,12.77,0,0,0-3.07-4.9,11,11,0,0,0-18.84,7.39A11.51,11.51,0,0,0,23.89,29a.45.45,0,0,1,0,.11h0a1,1,0,0,1-.85,1,7,7,0,0,0-5.64,7.13c0,.17,0,.35,0,.52a6.56,6.56,0,0,0,4.27,5.82L21,45.47a8.49,8.49,0,0,1-5.52-7.54c0-.24,0-.44,0-.65a8.8,8.8,0,0,1,6.42-8.85c0-.24,0-.47,0-.71A13,13,0,0,1,44.05,18.9a14.22,14.22,0,0,1,3,4.22,5.88,5.88,0,0,1,3.63-1.26c2.76,0,5.67,2,6.21,6.34,5,1.25,7.74,4.48,7.74,9.15C64.59,43.39,60.94,45.38,57.88,46Z"/><path class="cls-2" d="M27,53H24a1,1,0,0,1-1-1V38.68A2.68,2.68,0,0,1,25.68,36H27a2.26,2.26,0,0,1,2.25-2h3.46A2.26,2.26,0,0,1,35,36H47.32A2.68,2.68,0,0,1,50,38.68V40H48V38.68a.68.68,0,0,0-.68-.68H34a1,1,0,0,1-1-1v-.73a.27.27,0,0,0-.27-.27H29.27a.27.27,0,0,0-.27.27V37a1,1,0,0,1-1,1H25.68a.69.69,0,0,0-.68.68V51h2Z"/><path class="cls-2" d="M33,59H30a1,1,0,0,1-1-1V44.68A2.68,2.68,0,0,1,31.68,42H33a2.26,2.26,0,0,1,2.25-2h3.46A2.26,2.26,0,0,1,41,42H53.32A2.68,2.68,0,0,1,56,44.68V46H54V44.68a.68.68,0,0,0-.68-.68H40a1,1,0,0,1-1-1v-.73a.27.27,0,0,0-.27-.27H35.27a.27.27,0,0,0-.27.27V43a1,1,0,0,1-1,1H31.68a.69.69,0,0,0-.68.68V57h2Z"/><path class="cls-2" d="M61,65H36a1,1,0,0,1-1-1V50.68A2.68,2.68,0,0,1,37.68,48H39a2.26,2.26,0,0,1,2.25-2h3.46A2.26,2.26,0,0,1,47,48H59.32A2.68,2.68,0,0,1,62,50.68V64A1,1,0,0,1,61,65ZM37,63H60V50.68a.68.68,0,0,0-.68-.68H46a1,1,0,0,1-1-1v-.73a.27.27,0,0,0-.27-.27H41.27a.27.27,0,0,0-.27.27V49a1,1,0,0,1-1,1H37.68a.69.69,0,0,0-.68.68Z"/></g></svg>